<svg viewBox="0 0 512 512" xmlns="http://www.w3.org/2000/svg" xmlns:xlink="http://www.w3.org/1999/xlink"><linearGradient id="linear-gradient" gradientUnits="userSpaceOnUse" x1="-284.13" x2="482.75" y1="-299.64" y2="489.26"><stop offset="0" stop-color="#6bc2fd"/><stop offset=".4" stop-color="#3c98f0"/><stop offset=".8" stop-color="#1374e5"/><stop offset="1" stop-color="#0366e1"/></linearGradient><g id="Layer_2" data-name="Layer 2"><g id="Layer_1-2" data-name="Layer 1"><g id="Q"><rect fill="#003e82" height="512" rx="100.15" transform="matrix(0 1 -1 0 512 0)" width="512"/><rect fill="url(#linear-gradient)" height="485.05" rx="88.15" width="485.05" x="13.47" y="13.47"/><path d="m199.66 208.53-31.17 31.17-18.7-18.7v-73.36l24.94-24.94 24.93 24.94zm-49.87 155.83 24.94 24.94 24.93-24.94v-74.36l-31.17-31.16-18.7 18.7zm178.37-251.49-24.93 25.18h-94l-24.93-25.18 24.93-24.69h94zm-118.91 311-24.93-24.93 24.93-24.94h48.91l24.93 24.94-24.93 24.93zm58-59.46v-36h35.94l58.9 59.59.12 35.84h-35.49zm94.96-143.41-18.7 18.7-31.17-31.17v-60.89l24.93-24.94 24.94 24.94zm0 98.29-24.94 24.94-24.93-24.94v-29.29l31.17-31.16 18.7 18.7z" fill="#fff"/></g></g></g></svg>